<svg width="37" height="37" viewBox="0 0 37 37" fill="none" xmlns="http://www.w3.org/2000/svg">
<path d="M11.2796 32.0783C13.502 33.2622 15.9821 33.8793 18.5 33.875C26.9914 33.875 33.875 26.9914 33.875 18.5C33.875 10.0086 26.9914 3.12502 18.5 3.12502C10.0086 3.12502 3.12504 10.0086 3.12504 18.5C3.12504 21.1138 3.77664 23.5723 4.92464 25.7248C5.19249 26.2263 5.25547 26.812 5.10036 27.3589L3.29343 33.7096L9.6455 31.9041C10.1922 31.7485 10.778 31.811 11.2796 32.0783ZM18.5 36.0714C15.6214 36.0755 12.7863 35.3694 10.2459 34.0156L3.26121 36.0026C2.94767 36.0917 2.61604 36.0954 2.30058 36.0134C1.98511 35.9314 1.69727 35.7667 1.46679 35.5362C1.23631 35.3057 1.07156 35.0179 0.989563 34.7024C0.907563 34.3869 0.911289 34.0553 1.00036 33.7418L2.98593 26.7571C1.63115 24.216 0.924485 21.3797 0.928607 18.5C0.928607 8.7962 8.79621 0.928589 18.5 0.928589C28.2039 0.928589 36.0715 8.7962 36.0715 18.5C36.0715 28.2038 28.2039 36.0714 18.5 36.0714ZM11.9108 15.2054C11.9108 14.9141 12.0265 14.6348 12.2324 14.4288C12.4384 14.2229 12.7177 14.1072 13.009 14.1072H23.9911C24.2824 14.1072 24.5617 14.2229 24.7677 14.4288C24.9736 14.6348 25.0893 14.9141 25.0893 15.2054C25.0893 15.4966 24.9736 15.776 24.7677 15.9819C24.5617 16.1879 24.2824 16.3036 23.9911 16.3036H13.009C12.7177 16.3036 12.4384 16.1879 12.2324 15.9819C12.0265 15.776 11.9108 15.4966 11.9108 15.2054ZM11.9108 21.7947C11.9108 21.5034 12.0265 21.2241 12.2324 21.0181C12.4384 20.8122 12.7177 20.6964 13.009 20.6964H19.5983C19.8895 20.6964 20.1688 20.8122 20.3748 21.0181C20.5808 21.2241 20.6965 21.5034 20.6965 21.7947C20.6965 22.0859 20.5808 22.3653 20.3748 22.5712C20.1688 22.7772 19.8895 22.8929 19.5983 22.8929H13.009C12.7177 22.8929 12.4384 22.7772 12.2324 22.5712C12.0265 22.3653 11.9108 22.0859 11.9108 21.7947Z" fill="black"/>
</svg>
