<svg width="60" height="60" viewBox="0 0 60 60" fill="none" xmlns="http://www.w3.org/2000/svg">
<rect width="60" height="60" rx="30" fill="#F0F0F0"/>
<path d="M30 41.6667C30.7225 41.6676 31.4274 41.4434 32.0166 41.0252C32.6058 40.6071 33.0501 40.0157 33.2877 39.3334H26.7123C26.9499 40.0157 27.3942 40.6071 27.9834 41.0252C28.5726 41.4434 29.2775 41.6676 30 41.6667ZM38.1667 33.017V27.6667C38.1667 23.9135 35.6175 20.7519 32.1642 19.801C31.8223 18.94 30.987 18.3334 30 18.3334C29.013 18.3334 28.1777 18.94 27.8358 19.801C24.3825 20.753 21.8333 23.9135 21.8333 27.6667V33.017L19.8418 35.0085C19.623 35.2273 19.5001 35.524 19.5 35.8334V37C19.5 37.3095 19.6229 37.6062 19.8417 37.825C20.0605 38.0438 20.3572 38.1667 20.6667 38.1667H39.3333C39.6428 38.1667 39.9395 38.0438 40.1583 37.825C40.3771 37.6062 40.5 37.3095 40.5 37V35.8334C40.4999 35.524 40.377 35.2273 40.1582 35.0085L38.1667 33.017Z" fill="#1C274D"/>
</svg>
