<svg width="29" height="21" viewBox="0 0 29 21" fill="none" xmlns="http://www.w3.org/2000/svg">
<path fill-rule="evenodd" clip-rule="evenodd" d="M19.0289 9.28125C19.1654 8.0235 19.5294 7.01925 20.1631 6.12875C21.013 4.94087 22.4381 3.831 24.7944 2.65125C24.9455 2.58479 25.0816 2.48832 25.1944 2.36767C25.3071 2.24703 25.3941 2.10473 25.4502 1.94942C25.5063 1.79412 25.5302 1.62903 25.5206 1.46419C25.5109 1.29935 25.4678 1.1382 25.394 0.990507C25.3201 0.842817 25.217 0.711674 25.091 0.605036C24.9649 0.498398 24.8185 0.418489 24.6606 0.370163C24.5027 0.321836 24.3366 0.306101 24.1725 0.323908C24.0083 0.341713 23.8495 0.392691 23.7056 0.473747C21.1869 1.7315 19.362 3.05912 18.1806 4.715C16.9765 6.3985 16.5313 8.29487 16.5313 10.5V17.8125C16.5313 18.5667 16.8309 19.29 17.3642 19.8233C17.8975 20.3566 18.6208 20.6562 19.375 20.6562H25.875C26.6292 20.6562 27.3525 20.3566 27.8858 19.8233C28.4191 19.29 28.7188 18.5667 28.7188 17.8125V12.125C28.7188 10.5552 27.4448 9.28125 25.875 9.28125H19.0289ZM2.77888 9.28125C2.91539 8.0235 3.27938 7.01925 3.91314 6.12875C4.76301 4.94087 6.18813 3.831 8.54438 2.65125C8.69554 2.58479 8.83162 2.48832 8.94436 2.36767C9.0571 2.24703 9.14415 2.10473 9.20023 1.94942C9.2563 1.79412 9.28023 1.62903 9.27056 1.46419C9.26089 1.29935 9.21783 1.1382 9.14398 0.990507C9.07014 0.842817 8.96705 0.711674 8.84098 0.605036C8.71491 0.498398 8.56849 0.418489 8.4106 0.370163C8.2527 0.321836 8.08664 0.306101 7.92248 0.323908C7.75832 0.341713 7.59949 0.392691 7.45564 0.473747C4.93689 1.7315 3.11201 3.05912 1.93063 4.715C0.726509 6.3985 0.28126 8.29487 0.28126 10.5V17.8125C0.28126 18.5667 0.58087 19.29 1.11418 19.8233C1.64748 20.3566 2.3708 20.6562 3.12501 20.6562H9.62501C10.3792 20.6562 11.1025 20.3566 11.6358 19.8233C12.1691 19.29 12.4688 18.5667 12.4688 17.8125V12.125C12.4688 10.5552 11.1948 9.28125 9.62501 9.28125H2.77888Z" fill="#1C274D"/>
</svg>
