<svg width="29" height="21" viewBox="0 0 29 21" fill="none" xmlns="http://www.w3.org/2000/svg">
<path fill-rule="evenodd" clip-rule="evenodd" d="M9.97112 11.7188C9.83462 12.9765 9.47062 13.9808 8.83687 14.8713C7.987 16.0591 6.56187 17.169 4.20562 18.3488C4.05446 18.4152 3.91838 18.5117 3.80564 18.6323C3.6929 18.753 3.60585 18.8953 3.54978 19.0506C3.49371 19.2059 3.46978 19.371 3.47944 19.5358C3.48911 19.7006 3.53218 19.8618 3.60602 20.0095C3.67987 20.1572 3.78295 20.2883 3.90902 20.395C4.03509 20.5016 4.18152 20.5815 4.33941 20.6298C4.4973 20.6782 4.66337 20.6939 4.82753 20.6761C4.99169 20.6583 5.15052 20.6073 5.29437 20.5263C7.81312 19.2685 9.638 17.9409 10.8194 16.285C12.0235 14.6015 12.4687 12.7051 12.4687 10.5V3.1875C12.4687 2.43329 12.1691 1.70997 11.6358 1.17667C11.1025 0.643359 10.3792 0.34375 9.625 0.34375H3.125C2.37079 0.34375 1.64747 0.643359 1.11416 1.17667C0.580859 1.70997 0.28125 2.43329 0.28125 3.1875V8.875C0.28125 10.4448 1.55525 11.7188 3.125 11.7188H9.97112ZM26.2211 11.7188C26.0846 12.9765 25.7206 13.9808 25.0869 14.8713C24.237 16.0591 22.8119 17.169 20.4556 18.3488C20.3045 18.4152 20.1684 18.5117 20.0556 18.6323C19.9429 18.753 19.8558 18.8953 19.7998 19.0506C19.7437 19.2059 19.7198 19.371 19.7294 19.5358C19.7391 19.7006 19.7822 19.8618 19.856 20.0095C19.9299 20.1572 20.0329 20.2883 20.159 20.395C20.2851 20.5016 20.4315 20.5815 20.5894 20.6298C20.7473 20.6782 20.9134 20.6939 21.0775 20.6761C21.2417 20.6583 21.4005 20.6073 21.5444 20.5263C24.0631 19.2685 25.888 17.9409 27.0694 16.285C28.2735 14.6015 28.7187 12.7051 28.7187 10.5V3.1875C28.7187 2.43329 28.4191 1.70997 27.8858 1.17667C27.3525 0.643359 26.6292 0.34375 25.875 0.34375H19.375C18.6208 0.34375 17.8975 0.643359 17.3642 1.17667C16.8309 1.70997 16.5312 2.43329 16.5312 3.1875V8.875C16.5312 10.4448 17.8052 11.7188 19.375 11.7188H26.2211Z" fill="#3B3B3B"/>
</svg>
