<svg width="94" height="18" viewBox="0 0 94 18" fill="none" xmlns="http://www.w3.org/2000/svg">
<path d="M8.25276 0.9375V18H5.33479V0.9375H8.25276ZM13.6082 0.9375V3.28125H0.0261955V0.9375H13.6082ZM25.9378 3.21094L20.8401 18H17.7581L24.1799 0.9375H26.1487L25.9378 3.21094ZM30.2034 18L25.094 3.21094L24.8714 0.9375H26.8518L33.2971 18H30.2034ZM29.9573 11.6719V14.0039H20.676V11.6719H29.9573ZM46.1657 10.2891H41.8181L41.7946 8.14453H45.5915C46.2321 8.14453 46.7751 8.05078 47.2204 7.86328C47.6735 7.66797 48.0173 7.39062 48.2517 7.03125C48.486 6.66406 48.6032 6.22266 48.6032 5.70703C48.6032 5.13672 48.4939 4.67188 48.2751 4.3125C48.0564 3.95312 47.7204 3.69141 47.2673 3.52734C46.822 3.36328 46.2517 3.28125 45.5564 3.28125H42.7087V18H39.7673V0.9375H45.5564C46.4939 0.9375 47.3298 1.02734 48.0642 1.20703C48.8064 1.38672 49.4353 1.66797 49.9509 2.05078C50.4743 2.42578 50.8689 2.90234 51.1345 3.48047C51.4079 4.05859 51.5446 4.74609 51.5446 5.54297C51.5446 6.24609 51.3767 6.89062 51.0407 7.47656C50.7048 8.05469 50.2087 8.52734 49.5524 8.89453C48.8962 9.26172 48.0798 9.48047 47.1032 9.55078L46.1657 10.2891ZM46.0368 18H40.8923L42.2165 15.668H46.0368C46.7009 15.668 47.2556 15.5586 47.7009 15.3398C48.1462 15.1133 48.4782 14.8047 48.697 14.4141C48.9235 14.0156 49.0368 13.5508 49.0368 13.0195C49.0368 12.4648 48.9392 11.9844 48.7439 11.5781C48.5485 11.1641 48.2399 10.8477 47.8181 10.6289C47.3962 10.4023 46.8454 10.2891 46.1657 10.2891H42.861L42.8845 8.14453H47.1853L47.8532 8.95312C48.7907 8.98438 49.5603 9.19141 50.1618 9.57422C50.7712 9.95703 51.2243 10.4531 51.5212 11.0625C51.8181 11.6719 51.9665 12.3281 51.9665 13.0312C51.9665 14.1172 51.7282 15.0273 51.2517 15.7617C50.7829 16.4961 50.1071 17.0547 49.2243 17.4375C48.3415 17.8125 47.279 18 46.0368 18ZM62.632 0.9375V18H59.6906V0.9375H62.632ZM77.2467 10.2891H72.899L72.8756 8.14453H76.6724C77.3131 8.14453 77.856 8.05078 78.3013 7.86328C78.7545 7.66797 79.0982 7.39062 79.3326 7.03125C79.567 6.66406 79.6842 6.22266 79.6842 5.70703C79.6842 5.13672 79.5748 4.67188 79.356 4.3125C79.1373 3.95312 78.8013 3.69141 78.3482 3.52734C77.9029 3.36328 77.3326 3.28125 76.6373 3.28125H73.7896V18H70.8482V0.9375H76.6373C77.5748 0.9375 78.4107 1.02734 79.1451 1.20703C79.8873 1.38672 80.5162 1.66797 81.0318 2.05078C81.5553 2.42578 81.9498 2.90234 82.2154 3.48047C82.4888 4.05859 82.6256 4.74609 82.6256 5.54297C82.6256 6.24609 82.4576 6.89062 82.1217 7.47656C81.7857 8.05469 81.2896 8.52734 80.6334 8.89453C79.9771 9.26172 79.1607 9.48047 78.1842 9.55078L77.2467 10.2891ZM77.1178 18H71.9732L73.2974 15.668H77.1178C77.7818 15.668 78.3365 15.5586 78.7818 15.3398C79.2271 15.1133 79.5592 14.8047 79.7779 14.4141C80.0045 14.0156 80.1178 13.5508 80.1178 13.0195C80.1178 12.4648 80.0201 11.9844 79.8248 11.5781C79.6295 11.1641 79.3209 10.8477 78.899 10.6289C78.4771 10.4023 77.9263 10.2891 77.2467 10.2891H73.942L73.9654 8.14453H78.2662L78.9342 8.95312C79.8717 8.98438 80.6412 9.19141 81.2428 9.57422C81.8521 9.95703 82.3053 10.4531 82.6021 11.0625C82.899 11.6719 83.0474 12.3281 83.0474 13.0312C83.0474 14.1172 82.8092 15.0273 82.3326 15.7617C81.8638 16.4961 81.1881 17.0547 80.3053 17.4375C79.4224 17.8125 78.3599 18 77.1178 18ZM93.7129 0.9375V18H90.7715V0.9375H93.7129Z" fill="url(#paint0_linear_1_137)"/>
<defs>
<linearGradient id="paint0_linear_1_137" x1="-8.86633" y1="9.74825" x2="104" y2="9.74825" gradientUnits="userSpaceOnUse">
<stop offset="0.49" stop-color="#12339D"/>
<stop offset="1" stop-color="#666666" stop-opacity="0.81"/>
</linearGradient>
</defs>
</svg>
